<?xml version="1.0" encoding="UTF-8" standalone="no"?>
<!-- Created with Inkscape (http://www.inkscape.org/) -->

<svg
   width="210mm"
   height="297mm"
   viewBox="0 0 210 297"
   version="1.1"
   id="svg5"
   inkscape:version="1.2.2 (1:1.2.2+202305151914+b0a8486541)"
   sodipodi:docname="MoneyFlow-logo.svg"
   xmlns:inkscape="http://www.inkscape.org/namespaces/inkscape"
   xmlns:sodipodi="http://sodipodi.sourceforge.net/DTD/sodipodi-0.dtd"
   xmlns="http://www.w3.org/2000/svg"
   xmlns:svg="http://www.w3.org/2000/svg">
  <sodipodi:namedview
     id="namedview7"
     pagecolor="#ffffff"
     bordercolor="#000000"
     borderopacity="0.25"
     inkscape:showpageshadow="2"
     inkscape:pageopacity="0.0"
     inkscape:pagecheckerboard="0"
     inkscape:deskcolor="#d1d1d1"
     inkscape:document-units="mm"
     showgrid="false"
     inkscape:zoom="1.0066639"
     inkscape:cx="376.49112"
     inkscape:cy="205.62971"
     inkscape:window-width="1366"
     inkscape:window-height="731"
     inkscape:window-x="0"
     inkscape:window-y="0"
     inkscape:window-maximized="1"
     inkscape:current-layer="layer1" />
  <defs
     id="defs2" />
  <g
     inkscape:label="Layer 1"
     inkscape:groupmode="layer"
     id="layer1">
    <path
       id="path319"
       style="fill:#008000;stroke-width:0.264583"
       d="m 33.782903,44.100984 c 0,0 16.470193,-10.278443 37.613549,-9.50263 21.143356,0.775813 45.273298,18.145575 74.647208,17.399233 16.78819,-0.42656 36.70199,-6.60045 36.70199,-6.60045 v 72.407293 c 0,0 -19.1972,6.09071 -35.65969,6.60045 -29.67681,0.91889 -54.309637,-16.64929 -75.619212,-17.39922 -21.309575,-0.74993 -37.683845,9.50262 -37.683845,9.50262 z"
       sodipodi:nodetypes="czsccszcc" />
    <path
       id="path319-9"
       style="fill:#00ff00;stroke-width:0.244698"
       d="m 36.365776,48.003959 c 0,0 13.164412,-9.751619 33.570338,-9.064061 20.405926,0.687559 48.127996,17.117658 76.477406,16.456218 16.20267,-0.378036 33.71953,-6.24345 33.71953,-6.24345 v 64.170464 c 0,0 -16.82526,5.7917 -32.71358,6.24345 -28.64175,0.81436 -56.849164,-15.79159 -77.415512,-16.45621 -20.566348,-0.66462 -33.638182,9.06405 -33.638182,9.06405 z"
       sodipodi:nodetypes="czsccszcc" />
    <path
       id="path400"
       style="fill:#00d400;stroke-width:0.264583"
       d="m 108.26402,54.898629 a 24.352114,24.352114 0 0 0 -24.352006,24.35149 24.352114,24.352114 0 0 0 24.352006,24.352001 24.352114,24.352114 0 0 0 24.35252,-24.352001 24.352114,24.352114 0 0 0 -24.35252,-24.35149 z m 0,2.97295 a 21.378527,21.378527 0 0 1 21.37854,21.37905 21.378527,21.378527 0 0 1 -21.37854,21.378031 21.378527,21.378527 0 0 1 -21.378544,-21.378541 21.378527,21.378527 0 0 1 21.378544,-21.37854 z" />
    <text
       xml:space="preserve"
       style="font-size:25.4px;letter-spacing:-2.71198px;fill:#00d400;stroke-width:0.264583"
       x="92.182571"
       y="85.867027"
       id="text675"><tspan
         sodipodi:role="line"
         id="tspan673"
         style="font-size:25.4px;fill:#00d400;stroke-width:0.264583"
         x="92.182571"
         y="85.867027">Rp</tspan></text>
    <path
       style="fill:#0000ff;stroke-width:0.569531"
       d="m 33.782902,19.162347 148.962748,1"
       id="path883" />
    <path
       id="rect1670-7"
       style="fill:#00ffff;stroke:none;stroke-width:0.101714"
       d="m 33.782804,19.747608 c 0,0 6.103482,-3.182797 12.258632,-2.759739 6.155151,0.423058 9.114409,3.558734 13.911535,4.214842 4.124252,0.564078 8.332889,0.600003 12.482305,-0.280611 3.738583,-0.793462 5.685621,-1.36221 5.685621,-1.36221 l -0.03376,-2.219108 5.34997,4.392113 -5.316216,4.174979 v -2.219109 c 0,0 -2.203821,0.497688 -5.68586,1.247652 -4.237356,0.912646 -8.354403,0.940465 -12.482066,0.395195 -4.800023,-0.63409 -7.756408,-3.791747 -13.911558,-4.214793 -6.15515,-0.423046 -12.258633,2.759765 -12.258633,2.759765 z"
       sodipodi:nodetypes="czascccccsazcc"
       inkscape:transform-center-x="-24.308957"
       inkscape:transform-center-y="23.70319" />
    <path
       id="rect1670-7-6"
       style="fill:#00ffff;stroke:none;stroke-width:0.101714"
       d="m 83.437177,28.706338 c 0,0 6.103482,-3.182797 12.258632,-2.759739 6.155151,0.423058 9.114401,3.558734 13.911531,4.214842 4.12425,0.564078 8.33289,0.600003 12.48231,-0.280611 3.73858,-0.793462 5.68562,-1.36221 5.68562,-1.36221 l -0.0338,-2.219108 5.34997,4.392113 -5.31622,4.174979 v -2.219109 c 0,0 -2.20382,0.497688 -5.68586,1.247652 -4.23736,0.912646 -8.3544,0.940465 -12.48207,0.395195 -4.80002,-0.63409 -7.7564,-3.791747 -13.91155,-4.214793 -6.15515,-0.423046 -12.258633,2.759765 -12.258633,2.759765 z"
       sodipodi:nodetypes="czascccccsazcc"
       inkscape:transform-center-x="-24.308957"
       inkscape:transform-center-y="23.70319" />
    <path
       id="rect1670-7-6-9"
       style="fill:#00ffff;stroke:none;stroke-width:0.101714"
       d="m 108.26434,19.747608 c 0,0 6.10349,-3.182797 12.25864,-2.759739 6.15515,0.423058 9.1144,3.558734 13.91153,4.214842 4.12425,0.564078 8.33289,0.600003 12.48231,-0.280611 3.73858,-0.793462 5.68562,-1.36221 5.68562,-1.36221 l -0.0338,-2.219108 5.34997,4.392113 -5.31622,4.174979 v -2.219109 c 0,0 -2.20382,0.497688 -5.68586,1.247652 -4.23736,0.912646 -8.3544,0.940465 -12.48207,0.395195 -4.80002,-0.63409 -7.7564,-3.791747 -13.91155,-4.214793 -6.15515,-0.423046 -12.25864,2.759765 -12.25864,2.759765 z"
       sodipodi:nodetypes="czascccccsazcc"
       inkscape:transform-center-x="-24.308957"
       inkscape:transform-center-y="23.70319" />
    <path
       id="rect1670-7-6-8"
       style="fill:#00ffff;stroke:none;stroke-width:0.101714"
       d="m 133.09151,37.665068 c 0,0 6.10348,-3.182797 12.25863,-2.759739 6.15515,0.423058 9.1144,3.558734 13.91153,4.214842 4.12425,0.564078 8.33289,0.600003 12.48231,-0.280611 3.73858,-0.793462 5.68562,-1.36221 5.68562,-1.36221 l -0.0338,-2.219108 5.34997,4.392113 -5.31622,4.174979 v -2.219109 c 0,0 -2.20382,0.497688 -5.68585,1.247652 -4.23736,0.912646 -8.3544,0.940465 -12.48207,0.395195 -4.80002,-0.63409 -7.75641,-3.791747 -13.91155,-4.214793 -6.15515,-0.423046 -12.25864,2.759765 -12.25864,2.759765 z"
       sodipodi:nodetypes="czascccccsazcc"
       inkscape:transform-center-x="-24.308957"
       inkscape:transform-center-y="23.70319" />
    <path
       id="rect1670-7-4"
       style="fill:#ff5555;stroke:none;stroke-width:0.101714"
       d="m 182.74562,144.47025 c 0,0 -6.10348,3.1828 -12.25863,2.75974 -6.15515,-0.42306 -9.11441,-3.55873 -13.91154,-4.21484 -4.12425,-0.56408 -8.33289,-0.6 -12.4823,0.28061 -3.73859,0.79346 -5.68562,1.36221 -5.68562,1.36221 l 0.0338,2.21911 -5.34997,-4.39211 5.31621,-4.17498 v 2.21911 c 0,0 2.20382,-0.49769 5.68586,-1.24766 4.23736,-0.91264 8.35441,-0.94046 12.48207,-0.39519 4.80002,0.63409 7.75641,3.79175 13.91156,4.21479 6.15515,0.42305 12.25863,-2.75976 12.25863,-2.75976 z"
       sodipodi:nodetypes="czascccccsazcc"
       inkscape:transform-center-x="24.308957"
       inkscape:transform-center-y="-23.70319" />
    <path
       id="rect1670-7-6-4"
       style="fill:#ff5555;stroke:none;stroke-width:0.101714"
       d="m 133.09125,135.51152 c 0,0 -6.10349,3.1828 -12.25863,2.75974 -6.15515,-0.42306 -9.1144,-3.55873 -13.91153,-4.21484 -4.12425,-0.56408 -8.332891,-0.6 -12.482311,0.28061 -3.73858,0.79346 -5.68562,1.36221 -5.68562,1.36221 l 0.0338,2.21911 -5.34997,-4.39211 5.31622,-4.17498 v 2.21911 c 0,0 2.20382,-0.49769 5.68586,-1.24766 4.23736,-0.91264 8.354401,-0.94046 12.482071,-0.39519 4.80002,0.63409 7.7564,3.79175 13.91155,4.21479 6.15514,0.42305 12.25863,-2.75976 12.25863,-2.75976 z"
       sodipodi:nodetypes="czascccccsazcc"
       inkscape:transform-center-x="24.308957"
       inkscape:transform-center-y="-23.70319" />
    <path
       id="rect1670-7-6-8-1"
       style="fill:#ff5555;stroke:none;stroke-width:0.101714"
       d="m 83.436919,126.55279 c 0,0 -6.10348,3.1828 -12.25863,2.75974 -6.15515,-0.42306 -9.1144,-3.55873 -13.91153,-4.21484 -4.12425,-0.56408 -8.33289,-0.6 -12.482307,0.28061 -3.73858,0.79346 -5.68562,1.36221 -5.68562,1.36221 l 0.0338,2.21911 -5.34997,-4.39211 5.31622,-4.17498 v 2.21911 c 0,0 2.20382,-0.49769 5.68585,-1.24766 4.237357,-0.91264 8.354397,-0.94046 12.482067,-0.39519 4.80002,0.63409 7.75641,3.79175 13.91155,4.21479 6.15515,0.42305 12.25864,-2.75976 12.25864,-2.75976 z"
       sodipodi:nodetypes="czascccccsazcc"
       inkscape:transform-center-x="24.308955"
       inkscape:transform-center-y="-23.70319" />
  </g>
</svg>
